# xmcd
#
# Track frame offsets:
#   150
#   23021
#   46521
#   65487
#   90434
#   111573
#   129255
#   152350
#   178098
#   193254
#
# Disc length: 2872 seconds
#
# Revision: 0
# Processed by: cddbd v1.5PL3 Copyright (c) Steve Scherf et al.
# Submitted via: Media_Universe 3.0
#
DISCID=780b360a
DTITLE=JOLEME  NAYARADOU - PANORAMA
DYEAR=1900
DGENRE=Dance
TTITLE0=LE SERMENT
TTITLE1=FREDERICA
TTITLE2=REGRETS
TTITLE3=JE SUIS UN INCOMPRIS
TTITLE4=VOUDRAIS-TU
TTITLE5=TI ZOUEZO
TTITLE6=JE SUIS UN INDIEN 
TTITLE7=O MARIE 
TTITLE8=POUR LA DERNIERE FOIS 
TTITLE9=O MON AMOUR 
EXTD=
EXTT0=
EXTT1=
EXTT2=
EXTT3=
EXTT4=
EXTT5=
EXTT6=
EXTT7=
EXTT8=
EXTT9=
PLAYORDER=
